<?xml version="1.0" standalone="no"?>
<!DOCTYPE svg PUBLIC "-//W3C//DTD SVG 20010904//EN"
 "http://www.w3.org/TR/2001/REC-SVG-20010904/DTD/svg10.dtd">
<svg version="1.0" xmlns="http://www.w3.org/2000/svg"
 width="228.000000pt" height="228.000000pt" viewBox="0 0 228.000000 228.000000"
 preserveAspectRatio="xMidYMid meet">
<metadata>
Created by potrace 1.11, written by Peter Selinger 2001-2013
</metadata>
<g transform="translate(0.000000,228.000000) scale(0.100000,-0.100000)"
fill="#000000" stroke="none">
<path d="M1111 1166 c-1031 -1031 -1083 -1086 -1029 -1086 7 0 487 474 1067
1054 1031 1031 1083 1086 1029 1086 -7 0 -487 -474 -1067 -1054z"/>
<path d="M217 1988 c80 -123 146 -228 146 -233 0 -6 -68 -113 -152 -238 -84
-126 -155 -235 -158 -243 -4 -12 21 -14 158 -14 l164 1 88 144 c49 80 92 145
96 145 5 0 47 -65 95 -145 l88 -145 164 0 c90 0 164 2 164 5 0 2 -70 110 -155
240 -85 130 -155 240 -155 245 0 5 61 105 136 222 75 117 139 219 141 226 4 9
-31 12 -154 12 l-160 0 -78 -145 c-44 -79 -80 -143 -81 -142 0 1 -38 66 -84
145 l-82 142 -164 0 -163 0 146 -222z"/>
<path d="M1555 1116 c-126 -31 -238 -117 -289 -222 -73 -149 -73 -369 0 -519
77 -156 225 -235 444 -235 315 0 490 178 490 500 0 254 -122 423 -342 475 -75
18 -233 18 -303 1z m210 -217 c54 -15 109 -74 124 -132 16 -65 14 -214 -4
-274 -27 -89 -113 -143 -208 -129 -108 16 -159 93 -165 247 -7 156 28 242 112
280 47 21 85 23 141 8z"/>
</g>
</svg>
